<?xml version="1.0" encoding="UTF-8"?>
<svg width="1024px" height="1024px" viewBox="0 0 1024 1024" version="1.1" xmlns="http://www.w3.org/2000/svg" xmlns:xlink="http://www.w3.org/1999/xlink">
    <title>1 - Layer</title>
    <g id="Template---App-Icons" stroke="none" stroke-width="1" fill="none" fill-rule="evenodd">
        <g id="1---Layer" fill="color(display-p3 0.000 0.804 0.675)">
            <path d="M425.022163,384 L598.977837,384 C613.242137,384 618.414716,385.48521 623.629531,388.274123 C628.844346,391.063037 632.936963,395.155654 635.725877,400.370469 C638.51479,405.585284 640,410.757863 640,425.022163 L640,598.977837 C640,613.242137 638.51479,618.414716 635.725877,623.629531 C632.936963,628.844346 628.844346,632.936963 623.629531,635.725877 C618.414716,638.51479 613.242137,640 598.977837,640 L425.022163,640 C410.757863,640 405.585284,638.51479 400.370469,635.725877 C395.155654,632.936963 391.063037,628.844346 388.274123,623.629531 C385.48521,618.414716 384,613.242137 384,598.977837 L384,425.022163 C384,410.757863 385.48521,405.585284 388.274123,400.370469 C391.063037,395.155654 395.155654,391.063037 400.370469,388.274123 C405.585284,385.48521 410.757863,384 425.022163,384 Z" id="Rectangle"></path>
            <path d="M425.022163,670 L598.977837,670 C613.242137,670 618.414716,671.48521 623.629531,674.274123 C628.844346,677.063037 632.936963,681.155654 635.725877,686.370469 C638.51479,691.585284 640,696.757863 640,711.022163 L640,884.977837 C640,899.242137 638.51479,904.414716 635.725877,909.629531 C632.936963,914.844346 628.844346,918.936963 623.629531,921.725877 C618.414716,924.51479 613.242137,926 598.977837,926 L425.022163,926 C410.757863,926 405.585284,924.51479 400.370469,921.725877 C395.155654,918.936963 391.063037,914.844346 388.274123,909.629531 C385.48521,904.414716 384,899.242137 384,884.977837 L384,711.022163 C384,696.757863 385.48521,691.585284 388.274123,686.370469 C391.063037,681.155654 395.155654,677.063037 400.370469,674.274123 C405.585284,671.48521 410.757863,670 425.022163,670 Z" id="Rectangle-Copy-4"></path>
            <path d="M425.022163,98 L598.977837,98 C613.242137,98 618.414716,99.4852098 623.629531,102.274123 C628.844346,105.063037 632.936963,109.155654 635.725877,114.370469 C638.51479,119.585284 640,124.757863 640,139.022163 L640,312.977837 C640,327.242137 638.51479,332.414716 635.725877,337.629531 C632.936963,342.844346 628.844346,346.936963 623.629531,349.725877 C618.414716,352.51479 613.242137,354 598.977837,354 L425.022163,354 C410.757863,354 405.585284,352.51479 400.370469,349.725877 C395.155654,346.936963 391.063037,342.844346 388.274123,337.629531 C385.48521,332.414716 384,327.242137 384,312.977837 L384,139.022163 C384,124.757863 385.48521,119.585284 388.274123,114.370469 C391.063037,109.155654 395.155654,105.063037 400.370469,102.274123 C405.585284,99.4852098 410.757863,98 425.022163,98 Z" id="Rectangle-Copy-3"></path>
        </g>
    </g>
</svg>