<?xml version="1.0" encoding="UTF-8"?>
<svg width="1024px" height="1024px" viewBox="0 0 1024 1024" version="1.1" xmlns="http://www.w3.org/2000/svg" xmlns:xlink="http://www.w3.org/1999/xlink">
    <title>2 - Layer</title>
    <g id="Template---App-Icons" stroke="none" stroke-width="1" fill="none" fill-rule="evenodd">
        <g id="2---Layer" fill="color(display-p3 0.801 0.801 0.801)">
            <path d="M711.022163,384 L884.977837,384 C899.242137,384 904.414716,385.48521 909.629531,388.274123 C914.844346,391.063037 918.936963,395.155654 921.725877,400.370469 C924.51479,405.585284 926,410.757863 926,425.022163 L926,598.977837 C926,613.242137 924.51479,618.414716 921.725877,623.629531 C918.936963,628.844346 914.844346,632.936963 909.629531,635.725877 C904.414716,638.51479 899.242137,640 884.977837,640 L711.022163,640 C696.757863,640 691.585284,638.51479 686.370469,635.725877 C681.155654,632.936963 677.063037,628.844346 674.274123,623.629531 C671.48521,618.414716 670,613.242137 670,598.977837 L670,425.022163 C670,410.757863 671.48521,405.585284 674.274123,400.370469 C677.063037,395.155654 681.155654,391.063037 686.370469,388.274123 C691.585284,385.48521 696.757863,384 711.022163,384 Z" id="Rectangle-Copy"></path>
            <path d="M711.022163,670 L884.977837,670 C899.242137,670 904.414716,671.48521 909.629531,674.274123 C914.844346,677.063037 918.936963,681.155654 921.725877,686.370469 C924.51479,691.585284 926,696.757863 926,711.022163 L926,798.920243 C926,825.7702 920.662527,848.427887 910.63987,867.168628 C900.617212,885.909369 885.909369,900.617212 867.168628,910.63987 C848.427887,920.662527 825.7702,926 798.920243,926 L711.022163,926 C696.757863,926 691.585284,924.51479 686.370469,921.725877 C681.155654,918.936963 677.063037,914.844346 674.274123,909.629531 C671.48521,904.414716 670,899.242137 670,884.977837 L670,711.022163 C670,696.757863 671.48521,691.585284 674.274123,686.370469 C677.063037,681.155654 681.155654,677.063037 686.370469,674.274123 C691.585284,671.48521 696.757863,670 711.022163,670 Z" id="Rectangle-Copy-5"></path>
            <path d="M711.022163,98 L798.920243,98 C825.7702,98 848.427887,103.337473 867.168628,113.36013 C885.909369,123.382788 900.617212,138.090631 910.63987,156.831372 C920.662527,175.572113 926,198.2298 926,225.079757 L926,312.977837 C926,327.242137 924.51479,332.414716 921.725877,337.629531 C918.936963,342.844346 914.844346,346.936963 909.629531,349.725877 C904.414716,352.51479 899.242137,354 884.977837,354 L711.022163,354 C696.757863,354 691.585284,352.51479 686.370469,349.725877 C681.155654,346.936963 677.063037,342.844346 674.274123,337.629531 C671.48521,332.414716 670,327.242137 670,312.977837 L670,139.022163 C670,124.757863 671.48521,119.585284 674.274123,114.370469 C677.063037,109.155654 681.155654,105.063037 686.370469,102.274123 C691.585284,99.4852098 696.757863,98 711.022163,98 Z" id="Rectangle-Copy-2"></path>
            <path d="M225.079757,98 L312.977837,98 C327.242137,98 332.414716,99.4852098 337.629531,102.274123 C342.844346,105.063037 346.936963,109.155654 349.725877,114.370469 C352.51479,119.585284 354,124.757863 354,139.022163 L354,312.977837 C354,327.242137 352.51479,332.414716 349.725877,337.629531 C346.936963,342.844346 342.844346,346.936963 337.629531,349.725877 C332.414716,352.51479 327.242137,354 312.977837,354 L139.022163,354 C124.757863,354 119.585284,352.51479 114.370469,349.725877 C109.155654,346.936963 105.063037,342.844346 102.274123,337.629531 C99.4852098,332.414716 98,327.242137 98,312.977837 L98,225.079757 C98,198.2298 103.337473,175.572113 113.36013,156.831372 C123.382788,138.090631 138.090631,123.382788 156.831372,113.36013 C175.572113,103.337473 198.2298,98 225.079757,98 Z" id="Rectangle-Copy-6"></path>
            <path d="M139.022163,384 L312.977837,384 C327.242137,384 332.414716,385.48521 337.629531,388.274123 C342.844346,391.063037 346.936963,395.155654 349.725877,400.370469 C352.51479,405.585284 354,410.757863 354,425.022163 L354,598.977837 C354,613.242137 352.51479,618.414716 349.725877,623.629531 C346.936963,628.844346 342.844346,632.936963 337.629531,635.725877 C332.414716,638.51479 327.242137,640 312.977837,640 L139.022163,640 C124.757863,640 119.585284,638.51479 114.370469,635.725877 C109.155654,632.936963 105.063037,628.844346 102.274123,623.629531 C99.4852098,618.414716 98,613.242137 98,598.977837 L98,425.022163 C98,410.757863 99.4852098,405.585284 102.274123,400.370469 C105.063037,395.155654 109.155654,391.063037 114.370469,388.274123 C119.585284,385.48521 124.757863,384 139.022163,384 Z" id="Rectangle-Copy-7"></path>
            <path d="M139.022163,670 L312.977837,670 C327.242137,670 332.414716,671.48521 337.629531,674.274123 C342.844346,677.063037 346.936963,681.155654 349.725877,686.370469 C352.51479,691.585284 354,696.757863 354,711.022163 L354,884.977837 C354,899.242137 352.51479,904.414716 349.725877,909.629531 C346.936963,914.844346 342.844346,918.936963 337.629531,921.725877 C332.414716,924.51479 327.242137,926 312.977837,926 L225.079757,926 C198.2298,926 175.572113,920.662527 156.831372,910.63987 C138.090631,900.617212 123.382788,885.909369 113.36013,867.168628 C103.337473,848.427887 98,825.7702 98,798.920243 L98,711.022163 C98,696.757863 99.4852098,691.585284 102.274123,686.370469 C105.063037,681.155654 109.155654,677.063037 114.370469,674.274123 C119.585284,671.48521 124.757863,670 139.022163,670 Z" id="Rectangle-Copy-8"></path>
        </g>
    </g>
</svg>